<svg width="96" height="96" viewBox="0 0 96 96" fill="none" xmlns="http://www.w3.org/2000/svg" role="img" aria-label="Hum Honge Kamyaab logo">
  <defs>
    <linearGradient id="g" x1="18" y1="18" x2="78" y2="78" gradientUnits="userSpaceOnUse">
      <stop stop-color="#0ea5e9"/>
      <stop offset="1" stop-color="#2563eb"/>
    </linearGradient>
    <filter id="s" x="-20%" y="-20%" width="140%" height="140%" color-interpolation-filters="sRGB">
      <feDropShadow dx="0" dy="2" stdDeviation="2" flood-color="#0f172a" flood-opacity="0.14"/>
    </filter>
  </defs>

  <!-- Shield (strength + protection) -->
  <path
    d="M48 10C58 18 68.5 22 78 24.5V47.5C78 67.2 63.9 80.8 48 86C32.1 80.8 18 67.2 18 47.5V24.5C27.5 22 38 18 48 10Z"
    fill="url(#g)"
    filter="url(#s)"
  />

  <!-- Upward mark -->
  <path
    d="M34 54.5L44.4 44.1C45.2 43.3 46.4 43.3 47.2 44.1L52 48.9L62.8 38.1C63.6 37.3 64.8 37.3 65.6 38.1L69 41.5"
    stroke="#FFFFFF"
    stroke-width="6"
    stroke-linecap="round"
    stroke-linejoin="round"
    opacity="0.95"
  />
</svg>
